<?xml version="1.0" standalone="no"?>
<!DOCTYPE svg PUBLIC "-//W3C//DTD SVG 20010904//EN"
 "http://www.w3.org/TR/2001/REC-SVG-20010904/DTD/svg10.dtd">
<svg version="1.0" xmlns="http://www.w3.org/2000/svg"
 width="512.000000pt" height="512.000000pt" viewBox="0 0 512.000000 512.000000"
 preserveAspectRatio="xMidYMid meet">

<g transform="translate(0.000000,512.000000) scale(0.100000,-0.100000)"
fill="current" stroke="none">
<path d="M2025 5113 c-530 -46 -1007 -267 -1379 -639 -764 -764 -861 -1962
-230 -2841 310 -430 784 -743 1302 -858 99 -22 125 -25 159 -16 93 25 153 101
153 193 0 64 -18 105 -67 149 -34 31 -56 40 -139 59 -583 131 -1048 515 -1279
1056 -62 144 -99 277 -130 465 l-6 37 129 3 c120 4 131 6 169 31 62 41 88 90
88 168 0 78 -26 127 -88 168 -38 25 -49 27 -169 31 l-129 3 6 37 c67 416 234
751 514 1032 155 154 302 258 501 353 169 80 326 128 531 161 l37 6 3 -129 c4
-120 6 -131 31 -169 41 -63 90 -88 169 -88 54 0 72 5 106 27 22 15 51 44 64
65 21 34 24 52 28 166 l3 128 37 -6 c263 -44 471 -115 666 -230 441 -259 741
-672 855 -1179 19 -83 28 -105 59 -139 43 -48 85 -67 148 -67 67 0 129 33 163
87 42 66 44 97 15 229 -167 745 -721 1357 -1445 1598 -276 92 -603 133 -875
109z"/>
<path d="M2132 3909 c-45 -13 -108 -80 -121 -126 -7 -24 -11 -178 -11 -408 l0
-370 -261 -260 c-146 -146 -270 -278 -281 -300 -38 -73 -20 -185 38 -236 66
-58 164 -69 236 -26 24 14 179 162 345 329 261 262 303 309 312 346 8 29 11
178 9 485 l-3 442 -24 38 c-47 76 -151 113 -239 86z"/>
<path d="M3542 2789 c-175 -24 -360 -86 -507 -170 -129 -74 -219 -145 -326
-257 -187 -195 -303 -414 -361 -685 -31 -146 -31 -408 0 -554 58 -269 173
-489 357 -681 190 -200 413 -332 669 -397 392 -99 789 -29 1139 202 94 62 299
267 362 363 166 250 239 491 239 790 0 241 -41 420 -141 620 -76 150 -139 236
-268 365 -208 209 -422 326 -703 385 -114 24 -350 34 -460 19z m413 -418 c465
-115 786 -544 762 -1016 -20 -368 -226 -685 -554 -849 -269 -135 -590 -139
-859 -12 -121 57 -204 115 -289 201 -336 335 -390 853 -130 1251 149 229 388
387 662 439 104 20 301 13 408 -14z"/>
<path d="M3252 1589 c-47 -14 -109 -80 -123 -131 -23 -89 12 -182 88 -229 l38
-24 465 0 465 0 38 24 c21 13 50 42 65 64 23 34 27 52 27 107 0 55 -4 73 -27
107 -15 22 -44 51 -65 64 l-38 24 -450 2 c-267 1 -463 -2 -483 -8z"/>
</g>
</svg>
