<?xml version="1.0" standalone="no"?>
<!DOCTYPE svg PUBLIC "-//W3C//DTD SVG 20010904//EN"
 "http://www.w3.org/TR/2001/REC-SVG-20010904/DTD/svg10.dtd">
<svg version="1.0" xmlns="http://www.w3.org/2000/svg"
 width="512.000000pt" height="512.000000pt" viewBox="0 0 512.000000 512.000000"
 preserveAspectRatio="xMidYMid meet">

<g transform="translate(0.000000,512.000000) scale(0.100000,-0.100000)"
fill="white" stroke="none">
<path d="M1375 5111 c-79 -20 -117 -51 -438 -370 -286 -284 -332 -334 -360
-391 l-32 -65 -3 -1231 -2 -1231 21 -26 c26 -34 79 -37 109 -7 20 20 20 33 20
1234 l0 1215 248 3 247 3 53 28 c67 35 122 90 153 153 23 47 24 58 27 297 l3
247 818 0 c813 0 818 0 845 21 36 28 36 80 0 108 -27 21 -31 21 -853 20 -454
-1 -839 -4 -856 -8z m-110 -598 c-8 -33 -65 -94 -102 -109 -23 -10 -82 -14
-200 -14 l-168 0 235 235 235 235 3 -162 c1 -90 0 -173 -3 -185z"/>
<path d="M3335 5096 c-32 -32 -32 -70 0 -101 24 -25 24 -25 239 -25 228 0 252
-4 300 -48 60 -56 56 88 56 -2117 0 -1998 0 -2026 -20 -2065 -11 -21 -34 -49
-52 -62 l-33 -23 -1495 -3 c-822 -1 -1505 0 -1517 3 -34 8 -84 56 -104 100
-17 36 -19 72 -19 403 0 349 -1 363 -20 382 -30 30 -83 27 -110 -7 -21 -27
-21 -32 -18 -408 l3 -380 26 -55 c31 -66 94 -131 157 -162 39 -19 68 -24 177
-28 l130 -5 5 -130 c5 -116 9 -136 33 -182 35 -67 89 -119 157 -152 l55 -26
1525 0 1525 0 46 21 c91 42 154 116 183 214 14 48 16 180 16 1165 0 1110 0
1112 -21 1139 -26 33 -79 36 -109 6 -20 -20 -20 -33 -20 -1135 0 -981 -2
-1120 -15 -1152 -21 -50 -42 -72 -90 -94 -38 -18 -105 -19 -1518 -19 -1608 0
-1513 -3 -1569 56 -40 43 -48 75 -48 190 l0 104 1315 0 1314 0 58 22 c77 29
152 104 181 181 l22 58 0 1854 0 1855 110 0 c118 0 146 -8 187 -52 54 -58 53
-37 53 -848 0 -737 0 -750 20 -770 30 -30 83 -27 110 7 21 26 21 27 18 797
l-3 771 -26 55 c-31 66 -94 131 -157 162 -39 19 -68 24 -177 28 l-130 5 -5
130 c-5 116 -9 136 -33 182 -36 69 -88 120 -156 152 -55 25 -61 26 -293 29
l-238 3 -25 -25z"/>
<path d="M2862 4557 c-29 -31 -28 -72 3 -102 l24 -25 259 0 c247 0 261 1 286
21 33 26 36 79 6 109 -19 19 -33 20 -288 20 -268 0 -269 0 -290 -23z"/>
<path d="M1222 4020 c-60 -37 -62 -53 -62 -420 0 -367 2 -383 62 -420 32 -20
46 -20 390 -18 l358 3 32 33 33 32 0 370 0 370 -33 32 -32 33 -358 3 c-344 2
-358 2 -390 -18z m668 -420 l0 -290 -290 0 -290 0 0 290 0 290 290 0 290 0 0
-290z"/>
<path d="M2301 3894 c-12 -15 -21 -37 -21 -50 0 -28 30 -61 62 -69 13 -3 261
-4 551 -3 l529 3 19 24 c25 30 24 76 -1 101 -20 20 -33 20 -569 20 l-550 0
-20 -26z"/>
<path d="M2325 3419 c-49 -27 -58 -70 -24 -113 l20 -26 550 0 c536 0 549 0
569 20 25 25 26 71 1 101 l-19 24 -539 2 c-379 2 -544 -1 -558 -8z"/>
<path d="M1185 2875 c-14 -13 -25 -36 -25 -50 0 -14 11 -37 25 -50 l24 -25
1099 0 c1097 0 1099 0 1126 21 36 28 36 80 0 108 -27 21 -29 21 -1126 21
l-1099 0 -24 -25z"/>
<path d="M1181 2374 c-24 -30 -26 -43 -10 -78 19 -40 54 -48 207 -44 162 4
182 12 182 79 0 63 -18 69 -201 69 l-158 0 -20 -26z"/>
<path d="M1822 2384 c-30 -21 -31 -83 -1 -110 20 -18 48 -19 811 -19 l790 0
19 24 c25 30 24 76 -1 101 -20 20 -33 20 -808 20 -697 0 -790 -2 -810 -16z"/>
<path d="M1204 1898 c-22 -10 -44 -47 -44 -72 0 -7 9 -25 21 -40 l20 -26 160
0 c146 0 161 2 179 20 30 30 27 83 -6 109 -24 19 -40 21 -168 20 -77 0 -151
-5 -162 -11z"/>
<path d="M1827 1889 c-34 -26 -37 -79 -7 -109 20 -20 33 -20 810 -20 777 0
790 0 810 20 25 25 26 71 1 101 l-19 24 -785 3 c-782 2 -784 2 -810 -19z"/>
<path d="M1185 1385 c-14 -13 -25 -36 -25 -50 0 -14 11 -37 25 -50 23 -24 28
-25 170 -25 180 0 205 9 205 77 0 20 -8 40 -22 53 -20 18 -35 20 -175 20 -150
0 -155 -1 -178 -25z"/>
<path d="M1820 1390 c-27 -27 -27 -83 2 -110 22 -20 31 -20 804 -20 775 0 782
0 808 21 34 27 36 77 3 107 l-23 22 -787 0 c-774 0 -787 0 -807 -20z"/>
</g>
</svg>
