<?xml version="1.0" standalone="no"?>
<!DOCTYPE svg PUBLIC "-//W3C//DTD SVG 20010904//EN"
 "http://www.w3.org/TR/2001/REC-SVG-20010904/DTD/svg10.dtd">
<svg version="1.0" xmlns="http://www.w3.org/2000/svg"
 width="512.000000pt" height="512.000000pt" viewBox="0 0 512.000000 512.000000"
 preserveAspectRatio="xMidYMid meet">

<g transform="translate(0.000000,512.000000) scale(0.100000,-0.100000)"
fill="current" stroke="none">
<path d="M4855 4174 c-39 -8 -116 -37 -174 -66 -89 -44 -117 -64 -190 -137
-89 -89 -136 -158 -178 -261 -47 -118 -53 -183 -53 -585 0 -347 1 -378 20
-439 26 -83 105 -173 186 -211 l54 -26 0 -633 c0 -735 -4 -703 90 -797 70 -70
132 -94 229 -87 115 9 206 72 255 177 19 43 21 66 24 315 3 293 0 316 -49 341
-34 18 -60 19 -94 3 -51 -23 -55 -46 -55 -313 0 -267 -4 -290 -55 -313 -45
-21 -84 -15 -116 17 l-29 29 0 691 0 691 -28 31 c-22 24 -40 33 -82 40 -58 9
-91 28 -124 73 -20 26 -21 42 -24 389 -3 415 2 462 59 575 49 98 102 159 187
215 58 39 170 87 202 87 7 0 10 -229 10 -710 l0 -710 29 -32 c24 -27 36 -33
71 -33 35 0 47 6 71 33 l29 32 0 776 c0 832 1 817 -49 844 -27 14 -133 11
-216 -6z"/>
<path d="M64 4001 c-12 -5 -31 -22 -43 -37 -22 -28 -22 -30 -19 -423 l3 -396
27 -57 c30 -66 98 -137 157 -168 l41 -20 0 -863 c0 -991 -6 -922 89 -1018 71
-70 133 -94 230 -87 111 8 199 67 248 166 l28 57 3 875 2 875 33 15 c55 24
132 106 163 173 l29 62 3 376 c4 423 2 435 -61 465 -39 19 -72 14 -108 -15
l-24 -19 -5 -384 c-5 -360 -6 -385 -25 -417 -32 -55 -67 -75 -140 -79 l-64 -4
-3 435 -3 435 -24 26 c-13 14 -36 28 -52 31 -37 8 -93 -18 -108 -51 -8 -17
-11 -154 -11 -451 l0 -425 -65 4 c-69 4 -101 21 -139 72 -20 26 -21 43 -26
412 l-5 384 -25 25 c-28 28 -74 39 -106 26z m566 -1957 c0 -762 -1 -838 -17
-864 -33 -57 -107 -67 -154 -21 l-29 29 0 846 0 846 100 0 100 0 0 -836z"/>
<path d="M2435 3951 c-516 -61 -956 -364 -1188 -819 -65 -127 -108 -248 -138
-392 -33 -152 -33 -430 0 -580 133 -619 597 -1078 1211 -1196 142 -27 420 -25
557 4 152 33 273 76 403 143 413 213 700 598 792 1062 31 158 31 396 0 554
-121 613 -592 1086 -1198 1203 -119 23 -333 33 -439 21z m445 -227 c99 -22
196 -57 300 -109 84 -43 230 -139 230 -152 0 -4 -15 -22 -32 -40 -46 -48 -46
-103 0 -144 48 -43 94 -38 155 19 27 26 28 26 46 7 42 -43 136 -185 176 -265
57 -114 91 -210 115 -329 29 -143 37 -131 -86 -131 -117 0 -136 -6 -160 -52
-20 -39 -12 -87 22 -119 23 -22 35 -24 138 -27 l112 -4 -8 -71 c-16 -155 -59
-298 -131 -442 -41 -82 -128 -218 -148 -230 -6 -4 -23 4 -37 18 -42 40 -77 49
-117 33 -74 -31 -85 -109 -23 -173 l33 -35 -40 -34 c-151 -130 -381 -239 -588
-279 -127 -24 -117 -32 -117 93 0 86 -4 111 -18 128 -41 52 -109 55 -153 8
-22 -23 -24 -35 -27 -140 l-4 -114 -41 6 c-183 24 -279 49 -412 106 -82 35
-215 114 -265 157 l-35 29 33 35 c41 42 47 93 16 134 -40 54 -99 54 -159 2
-19 -17 -39 -27 -46 -24 -20 13 -127 164 -167 237 -73 132 -130 305 -148 446
l-7 52 112 0 c105 0 113 2 136 24 34 34 41 71 21 113 -23 48 -65 63 -181 63
l-95 0 5 43 c25 183 57 302 114 430 32 71 100 185 143 239 l29 38 40 -32 c72
-58 159 -34 175 48 6 35 -6 65 -43 106 -14 14 -22 31 -19 36 3 6 40 36 82 67
90 68 232 145 343 185 73 27 256 70 295 70 14 0 16 -16 16 -109 0 -94 3 -112
20 -134 26 -32 78 -44 117 -25 46 22 63 69 63 179 l0 95 73 -8 c39 -4 106 -15
147 -24z"/>
<path d="M2489 3001 l-29 -29 0 -266 0 -266 28 -29 c41 -43 463 -424 492 -444
39 -27 77 -22 116 17 36 36 42 67 23 109 -6 13 -111 115 -234 226 l-224 203
-3 225 -3 225 -33 29 c-44 40 -93 40 -133 0z"/>
<path d="M4949 2201 c-88 -89 43 -219 138 -137 23 20 28 32 28 71 0 39 -5 51
-28 71 -41 35 -99 33 -138 -5z"/>
</g>
</svg>
