<?xml version="1.0" standalone="no"?>
<!DOCTYPE svg PUBLIC "-//W3C//DTD SVG 20010904//EN"
 "http://www.w3.org/TR/2001/REC-SVG-20010904/DTD/svg10.dtd">
<svg version="1.0" xmlns="http://www.w3.org/2000/svg"
 width="512.000000pt" height="512.000000pt" viewBox="0 0 512.000000 512.000000"
 preserveAspectRatio="xMidYMid meet">

<g transform="translate(0.000000,512.000000) scale(0.100000,-0.100000)"
fill="white" stroke="none">
<path d="M170 4966 c-64 -17 -115 -59 -145 -119 l-25 -51 0 -480 c0 -308 4
-495 11 -519 6 -21 27 -56 46 -78 66 -73 69 -73 348 -79 l250 -5 3 -1716 2
-1716 25 -26 c42 -42 97 -42 139 0 l26 25 2 1912 3 1911 21 45 c26 56 90 115
141 129 26 8 518 11 1561 11 l1522 0 -21 -41 c-50 -99 -49 -38 -49 -2061 0
-1362 3 -1894 11 -1911 20 -45 85 -63 133 -38 54 29 51 -82 56 1766 l5 1710
365 5 c398 5 392 5 454 66 63 64 61 41 64 588 l3 499 -26 53 c-31 62 -81 103
-149 121 -72 19 -4708 18 -4776 -1z m4734 -192 c14 -5 16 -56 16 -463 0 -342
-3 -460 -12 -469 -9 -9 -99 -12 -345 -12 l-333 0 0 89 c0 143 37 218 132 265
42 21 66 26 128 26 124 0 170 28 170 103 0 39 -34 83 -72 92 -12 3 -940 4
-2060 3 l-2038 -3 -26 -27 c-37 -37 -37 -99 0 -136 25 -26 32 -27 145 -30
l119 -4 -18 -31 c-32 -54 -50 -145 -50 -249 l0 -98 -218 0 c-156 0 -221 3
-230 12 -18 18 -17 924 1 931 18 8 4672 8 4691 1z"/>
<path d="M1319 3271 c-40 -40 -40 -89 0 -133 l29 -33 589 0 c471 0 593 3 611
13 36 21 56 76 42 117 -22 68 4 65 -650 65 l-592 0 -29 -29z"/>
<path d="M2865 3276 c-47 -47 -43 -112 9 -150 26 -20 40 -21 331 -21 293 0
305 1 332 21 52 39 56 102 8 150 l-24 24 -316 0 -316 0 -24 -24z"/>
<path d="M1365 2723 c-11 -3 -32 -17 -47 -31 -40 -37 -39 -93 1 -133 l29 -29
592 0 c655 0 628 -3 650 66 16 49 -11 104 -60 121 -26 9 -185 12 -590 11 -305
0 -564 -2 -575 -5z"/>
<path d="M2906 2720 c-82 -26 -100 -118 -32 -172 19 -16 53 -18 334 -18 l313
0 24 24 c48 48 44 111 -8 150 -27 20 -41 21 -315 23 -158 1 -300 -2 -316 -7z"/>
<path d="M1363 2143 c-12 -2 -33 -16 -47 -30 -38 -37 -36 -95 3 -134 l29 -29
586 0 c416 0 592 3 610 11 14 7 32 27 42 47 21 44 10 87 -29 116 -28 21 -36
21 -600 22 -315 1 -582 0 -594 -3z"/>
<path d="M2905 2143 c-81 -21 -97 -141 -24 -178 41 -22 607 -22 648 -1 56 29
66 99 22 148 l-29 33 -299 2 c-164 0 -307 -1 -318 -4z"/>
<path d="M1001 309 c-41 -41 -42 -86 -2 -131 l29 -33 149 -3 c173 -3 208 7
231 69 12 32 12 41 -3 72 -9 19 -27 39 -41 46 -15 7 -85 11 -179 11 l-153 0
-31 -31z"/>
<path d="M1634 322 c-51 -41 -57 -97 -15 -144 l29 -33 138 -4 c163 -4 206 6
234 52 24 39 24 50 5 92 -24 49 -49 55 -218 55 -129 0 -155 -3 -173 -18z"/>
<path d="M2254 322 c-51 -41 -57 -97 -15 -144 l29 -33 144 -3 c167 -4 206 6
233 59 14 27 15 39 6 71 -18 60 -44 68 -223 68 -130 0 -156 -3 -174 -18z"/>
<path d="M2874 322 c-52 -41 -55 -109 -8 -153 25 -23 30 -24 184 -24 145 0
161 2 187 21 36 27 50 73 33 114 -22 52 -51 60 -222 60 -130 0 -156 -3 -174
-18z"/>
<path d="M3503 328 c-12 -6 -29 -26 -38 -45 -13 -28 -14 -40 -5 -69 21 -62 43
-69 223 -69 l159 0 29 33 c40 45 39 90 -2 131 l-31 31 -156 -1 c-89 0 -167 -5
-179 -11z"/>
</g>
</svg>
