<?xml version="1.0" standalone="no"?>
<!DOCTYPE svg PUBLIC "-//W3C//DTD SVG 20010904//EN"
 "http://www.w3.org/TR/2001/REC-SVG-20010904/DTD/svg10.dtd">
<svg version="1.0" xmlns="http://www.w3.org/2000/svg"
 width="512.000000pt" height="512.000000pt" viewBox="0 0 512.000000 512.000000"
 preserveAspectRatio="xMidYMid meet">

<g transform="translate(0.000000,512.000000) scale(0.100000,-0.100000)"
fill="current" stroke="none">
<path d="M261 4259 c-98 -19 -193 -94 -233 -183 l-23 -51 0 -930 0 -930 26
-56 c33 -71 87 -125 158 -158 54 -25 65 -26 254 -29 l197 -4 0 -423 0 -423
-180 -4 -180 -3 -31 -32 c-45 -44 -45 -102 0 -146 l31 -32 463 0 c431 0 464 1
489 18 37 25 53 77 38 121 -21 64 -43 71 -242 74 l-178 4 0 423 0 424 308 3
c296 3 309 4 358 26 128 58 209 210 184 344 -20 105 -92 198 -184 240 -50 23
-57 23 -463 26 l-412 3 -3 732 -3 732 -23 50 c-61 133 -212 212 -351 184z"/>
<path d="M4741 4259 c-98 -19 -193 -94 -233 -183 l-23 -51 -3 -732 -3 -732
-412 -3 c-406 -3 -413 -3 -463 -26 -92 -42 -164 -135 -184 -240 -25 -134 56
-286 184 -344 49 -22 62 -23 359 -26 l307 -3 0 -424 0 -423 -177 -4 c-153 -3
-182 -6 -205 -21 -58 -39 -58 -135 0 -174 25 -17 58 -18 489 -18 l463 0 31 32
c45 44 45 102 0 146 l-31 32 -180 3 -180 4 0 423 0 423 198 4 c188 3 199 4
253 29 71 33 125 87 158 158 l26 56 0 925 c0 883 -1 927 -19 974 -53 137 -212
224 -355 195z"/>
<path d="M1455 3623 c-158 -20 -281 -108 -348 -251 l-32 -67 -3 -233 -3 -232
29 -29 c21 -22 42 -31 78 -35 116 -14 173 -29 234 -64 36 -19 92 -51 125 -69
86 -47 176 -73 280 -80 164 -10 284 21 454 119 78 46 150 78 172 78 5 0 9
-369 9 -844 l0 -845 -227 -3 c-255 -3 -271 -7 -293 -74 -15 -44 1 -96 38 -121
25 -17 61 -18 592 -18 531 0 567 1 592 18 37 25 53 77 38 121 -22 67 -38 71
-292 74 l-228 3 0 845 c0 735 2 844 15 844 8 0 58 -23 112 -52 54 -28 128 -66
164 -84 182 -91 439 -83 624 19 33 18 89 50 125 69 61 35 118 50 234 64 36 4
57 13 78 35 l29 29 -3 232 -3 233 -32 67 c-53 113 -144 195 -261 236 -43 15
-151 16 -1157 18 -610 1 -1123 0 -1140 -3z"/>
</g>
</svg>
