<?xml version="1.0" standalone="no"?>
<!DOCTYPE svg PUBLIC "-//W3C//DTD SVG 20010904//EN"
 "http://www.w3.org/TR/2001/REC-SVG-20010904/DTD/svg10.dtd">
<svg version="1.0" xmlns="http://www.w3.org/2000/svg"
 width="512.000000pt" height="512.000000pt" viewBox="0 0 512.000000 512.000000"
 preserveAspectRatio="xMidYMid meet">

<g transform="translate(0.000000,512.000000) scale(0.100000,-0.100000)"
fill="current" stroke="none">
<path d="M4320 4440 l0 -440 240 0 240 0 0 440 0 440 -240 0 -240 0 0 -440z"/>
<path d="M2415 4709 c-16 -5 -154 -76 -305 -159 l-275 -150 618 0 618 0 24
-25 c16 -16 25 -35 25 -57 0 -29 -31 -63 -304 -337 -267 -269 -306 -311 -316
-350 -31 -119 48 -230 170 -239 78 -6 90 2 380 228 129 100 246 190 259 199
19 12 61 17 180 21 133 5 162 9 197 27 86 46 142 127 151 222 7 70 25 107 66
131 27 17 51 20 145 20 l112 0 0 240 0 240 -857 -1 c-477 0 -871 -5 -888 -10z"/>
<path d="M526 4221 c-58 -64 -58 -218 0 -282 17 -19 41 -19 1008 -19 l991 0
160 160 160 160 -1151 0 c-1125 0 -1151 0 -1168 -19z"/>
<path d="M676 3678 c-14 -46 -100 -335 -191 -643 l-165 -560 0 -1117 0 -1118
1320 0 1320 0 2 1143 3 1142 158 529 c87 291 156 530 154 533 -2 2 -91 -65
-198 -148 -226 -177 -273 -202 -379 -207 -171 -8 -312 98 -356 267 -18 73 -14
135 16 212 l18 49 -839 0 -838 0 -25 -82z m259 -1143 c24 -23 25 -29 25 -160
l0 -135 80 0 80 0 0 135 c0 131 1 137 25 160 15 16 36 25 55 25 19 0 40 -9 55
-25 24 -23 25 -29 25 -160 l0 -135 80 0 80 0 0 135 c0 131 1 137 25 160 32 33
78 33 110 0 25 -24 25 -26 25 -210 l0 -185 -80 -159 -79 -159 35 -478 c19
-264 31 -492 28 -509 -16 -77 -68 -140 -144 -174 -65 -30 -255 -30 -320 0 -76
34 -128 97 -144 174 -3 17 9 245 28 509 l35 478 -79 159 -80 159 0 185 c0 184
0 186 25 210 15 16 36 25 55 25 19 0 40 -9 55 -25z m1360 0 l25 -24 0 -497 c0
-483 1 -506 31 -798 17 -166 29 -327 27 -358 -5 -75 -46 -142 -112 -183 -49
-30 -51 -30 -186 -30 -135 0 -137 0 -186 30 -66 41 -107 108 -112 183 -2 31
10 192 27 358 17 165 31 308 31 317 0 11 -25 30 -70 52 -38 19 -74 44 -81 56
-13 26 -6 112 22 249 87 427 269 663 517 669 33 1 49 -5 67 -24z"/>
<path d="M1050 2000 l40 -80 110 0 110 0 40 80 40 80 -190 0 -190 0 40 -80z"/>
<path d="M1082 1315 c-33 -475 -33 -482 15 -504 31 -14 175 -14 206 0 48 22
48 29 15 504 l-32 445 -86 0 -86 0 -32 -445z"/>
<path d="M2114 2361 c-101 -62 -203 -269 -248 -510 -24 -126 -25 -122 50 -159
49 -25 69 -40 77 -62 11 -30 12 -30 89 -30 l78 0 0 390 c0 215 -3 390 -7 390
-5 0 -22 -8 -39 -19z"/>
<path d="M1990 1428 c0 -7 -11 -123 -25 -258 -31 -308 -31 -315 0 -345 22 -23
32 -25 115 -25 83 0 93 2 115 25 31 30 31 37 0 345 -14 135 -25 251 -25 258 0
9 -25 12 -90 12 -65 0 -90 -3 -90 -12z"/>
<path d="M3277 3007 l-157 -533 0 -1059 0 -1060 120 120 120 120 0 878 0 878
25 24 c32 33 78 33 110 0 l25 -24 0 -878 0 -878 120 -120 120 -120 0 1055 0
1055 -157 538 c-87 295 -160 537 -163 537 -3 0 -76 -240 -163 -533z"/>
<path d="M3335 340 l-100 -100 205 0 205 0 -100 100 c-55 55 -102 100 -105
100 -3 0 -50 -45 -105 -100z"/>
</g>
</svg>
